# xmcd
#
# Track frame offsets:
#	150
#	30128
#	40675
#	59740
#	82724
#	87320
#	102601
#	114947
#	141476
#	158667
#
# Disc length: 3015 seconds
#
# Revision: 0
# Processed by: cddbd v1.5.2PL0 Copyright (c) Steve Scherf et al.
# Submitted via: EasyCDDAExtractor 16.0.6.1
#
DISCID=750bc50a
DTITLE=James Brown - 2CD
DYEAR=2007
DGENRE=R&B
TTITLE0=Sex Machine
TTITLE1=Get Up Offa That Thing
TTITLE2=Medley: The Payback - It's Too Funky In Here
TTITLE3=Body Heat
TTITLE4=Cold Sweat
TTITLE5=I Got You (I feel Good)
TTITLE6=I Got The Feelin'
TTITLE7=Georgia On My Mind
TTITLE8=Please, Please, Please
TTITLE9=Medley: It's A Man's Man's Man's World - Lost Someone - It's A Man's Man
TTITLE9='s Man's World
EXTD=
EXTT0=
EXTT1=
EXTT2=
EXTT3=
EXTT4=
EXTT5=
EXTT6=
EXTT7=
EXTT8=
EXTT9=
PLAYORDER=
